<?xml version="1.0" encoding="UTF-8"?>
<svg xmlns="http://www.w3.org/2000/svg" xmlns:xlink="http://www.w3.org/1999/xlink" width="170px" height="50px" viewBox="0 0 170 50" version="1.1">
<g id="surface1">
<path style=" stroke:none;fill-rule:nonzero;fill:rgb(0.392157%,0.392157%,0.392157%);fill-opacity:1;" d="M 0 0 C 56.101562 0 112.199219 0 170 0 C 170 16.5 170 33 170 50 C 113.898438 50 57.800781 50 0 50 C 0 33.5 0 17 0 0 Z M 0 0 "/>
<path style=" stroke:none;fill-rule:nonzero;fill:rgb(98.039216%,98.039216%,98.039216%);fill-opacity:1;" d="M 76.316406 11.050781 C 79.429688 11.007812 82.546875 10.964844 85.757812 10.921875 C 86.730469 10.902344 87.703125 10.882812 88.707031 10.863281 C 97.238281 10.765625 97.238281 10.765625 100.527344 13.15625 C 102.792969 15.539062 103.335938 17.152344 103.3125 20.359375 C 103.078125 22.195312 102.199219 23.320312 101.050781 24.738281 C 100.707031 25.257812 100.359375 25.777344 100 26.316406 C 100.5 26.695312 101 27.074219 101.511719 27.46875 C 103.605469 29.230469 104.125 30.65625 104.375 33.386719 C 104.070312 36.863281 102.542969 38.695312 100.007812 40.894531 C 97.207031 42.699219 94.433594 42.777344 91.222656 42.734375 C 90.839844 42.734375 90.460938 42.730469 90.070312 42.730469 C 88.664062 42.726562 87.261719 42.710938 85.855469 42.699219 C 81.132812 42.664062 81.132812 42.664062 76.316406 42.632812 C 76.316406 32.210938 76.316406 21.789062 76.316406 11.050781 Z M 76.316406 11.050781 "/>
<path style=" stroke:none;fill-rule:nonzero;fill:rgb(0.392157%,0.392157%,0.784314%);fill-opacity:1;" d="M 0 0 C 16.671875 0 33.347656 0 50.527344 0 C 50.351562 0.695312 50.179688 1.390625 50 2.105469 C 49.652344 2.105469 49.304688 2.105469 48.949219 2.105469 C 48.949219 2.625 48.949219 3.148438 48.949219 3.683594 C 48.394531 3.511719 47.839844 3.335938 47.269531 3.15625 C 42.582031 2 38.054688 2.1875 33.683594 4.210938 C 33.164062 4.382812 32.640625 4.558594 32.105469 4.738281 C 31.46875 5.789062 31.46875 5.789062 31.050781 6.84375 C 30.707031 6.84375 30.359375 6.84375 30 6.84375 C 29.78125 7.285156 29.78125 7.285156 29.558594 7.734375 C 28.921875 9 28.269531 10.253906 27.609375 11.503906 C 23.878906 18.625 23.878906 18.625 20.230469 25.789062 C 20.066406 26.113281 19.90625 26.4375 19.738281 26.769531 C 18.957031 28.332031 18.242188 29.898438 17.585938 31.511719 C 16.84375 33.15625 16.84375 33.15625 15.789062 33.683594 C 15.605469 33.28125 15.417969 32.878906 15.226562 32.464844 C 14.96875 31.902344 14.707031 31.335938 14.441406 30.757812 C 14.15625 30.136719 13.871094 29.515625 13.578125 28.878906 C 12.9375 27.492188 12.285156 26.113281 11.621094 24.742188 C 11.453125 24.394531 11.289062 24.046875 11.117188 23.691406 C 10.796875 23.019531 10.472656 22.351562 10.144531 21.6875 C 9.15625 19.617188 8.8125 18.136719 8.421875 15.789062 C 5.988281 15.789062 3.558594 15.789062 1.050781 15.789062 C 0.878906 16.308594 0.707031 16.832031 0.527344 17.367188 C 0.351562 17.367188 0.179688 17.367188 0 17.367188 C 0 11.636719 0 5.90625 0 0 Z M 0 0 "/>
<path style=" stroke:none;fill-rule:nonzero;fill:rgb(97.647059%,97.647059%,97.647059%);fill-opacity:1;" d="M 41.050781 11.050781 C 44.179688 11.050781 47.304688 11.050781 50.527344 11.050781 C 50.699219 14.875 50.875 18.695312 51.050781 22.632812 C 52.09375 21.230469 52.09375 21.230469 53.15625 19.800781 C 53.605469 19.226562 54.050781 18.648438 54.5 18.070312 C 55.339844 16.96875 55.984375 15.957031 56.652344 14.722656 C 57.660156 13.019531 58.3125 12.117188 60 11.050781 C 63.640625 10.414062 67.390625 10.730469 71.050781 11.050781 C 68.632812 14.457031 65.921875 17.402344 62.945312 20.324219 C 62.625 20.65625 62.304688 20.984375 61.976562 21.320312 C 61.683594 21.613281 61.394531 21.902344 61.09375 22.203125 C 60.410156 23.152344 60.410156 23.152344 60.585938 24.402344 C 61.140625 26.054688 61.914062 27.332031 62.871094 28.796875 C 63.242188 29.363281 63.609375 29.933594 63.988281 30.519531 C 64.382812 31.113281 64.773438 31.707031 65.164062 32.300781 C 65.925781 33.46875 66.683594 34.636719 67.445312 35.800781 C 67.976562 36.617188 67.976562 36.617188 68.519531 37.453125 C 69.601562 39.148438 70.609375 40.867188 71.578125 42.632812 C 67.949219 43.152344 64.09375 43.671875 60.527344 42.632812 C 58.113281 40.765625 56.890625 37.957031 55.707031 35.214844 C 55.238281 34.097656 55.238281 34.097656 54.347656 32.6875 C 53.683594 31.578125 53.683594 31.578125 53.683594 30.527344 C 52.640625 30.667969 52.640625 30.667969 51.578125 31.050781 C 51.101562 32.488281 50.957031 33.484375 50.886719 34.972656 C 50.863281 35.417969 50.84375 35.867188 50.820312 36.324219 C 50.796875 36.789062 50.777344 37.253906 50.757812 37.730469 C 50.734375 38.199219 50.710938 38.667969 50.6875 39.152344 C 50.632812 40.3125 50.578125 41.472656 50.527344 42.632812 C 47.398438 42.632812 44.273438 42.632812 41.050781 42.632812 C 41.050781 32.210938 41.050781 21.789062 41.050781 11.050781 Z M 41.050781 11.050781 "/>
<path style=" stroke:none;fill-rule:nonzero;fill:rgb(98.431373%,98.431373%,98.431373%);fill-opacity:1;" d="M 110.527344 11.050781 C 118.515625 11.050781 126.503906 11.050781 134.738281 11.050781 C 134.738281 13.308594 134.738281 15.570312 134.738281 17.894531 C 129.699219 17.894531 124.664062 17.894531 119.472656 17.894531 C 119.472656 19.632812 119.472656 21.367188 119.472656 23.15625 C 124.164062 23.15625 128.851562 23.15625 133.683594 23.15625 C 133.683594 25.414062 133.683594 27.671875 133.683594 30 C 128.996094 30 124.304688 30 119.472656 30 C 119.472656 31.910156 119.472656 33.820312 119.472656 35.789062 C 124.683594 35.789062 129.894531 35.789062 135.261719 35.789062 C 135.261719 40 135.261719 40 134.738281 42.632812 C 126.746094 42.632812 118.757812 42.632812 110.527344 42.632812 C 110.527344 32.210938 110.527344 21.789062 110.527344 11.050781 Z M 110.527344 11.050781 "/>
<path style=" stroke:none;fill-rule:nonzero;fill:rgb(20%,58.039218%,95.294118%);fill-opacity:1;" d="M 50 4.210938 C 50 4.558594 50 4.90625 50 5.261719 C 49.21875 5.226562 49.21875 5.226562 48.421875 5.1875 C 43.875 5.039062 40.453125 5.085938 36.9375 8.222656 C 34.671875 10.578125 33.28125 13.199219 31.894531 16.132812 C 30.957031 18.089844 29.945312 19.996094 28.914062 21.90625 C 26.117188 26.984375 26.117188 26.984375 23.738281 32.257812 C 22.972656 34.132812 22.066406 35.925781 21.152344 37.730469 C 20.964844 38.101562 20.777344 38.46875 20.585938 38.851562 C 20.214844 39.59375 19.839844 40.332031 19.46875 41.070312 C 18.765625 42.46875 18.066406 43.863281 17.367188 45.261719 C 17.015625 45.964844 16.667969 46.667969 16.316406 47.367188 C 15.792969 47.367188 15.273438 47.367188 14.738281 47.367188 C 14.539062 46.816406 14.34375 46.261719 14.144531 45.691406 C 12.941406 42.492188 11.472656 39.414062 10.03125 36.316406 C 9.757812 35.71875 9.480469 35.117188 9.195312 34.503906 C 8.046875 32.023438 6.894531 29.546875 5.65625 27.109375 C 4.910156 25.605469 4.25 24.132812 3.652344 22.566406 C 3.058594 21.042969 2.441406 19.621094 1.710938 18.15625 C 1.050781 16.84375 1.050781 16.84375 1.050781 15.789062 C 3.484375 15.789062 5.914062 15.789062 8.421875 15.789062 C 8.714844 16.539062 9.007812 17.289062 9.308594 18.058594 C 11.378906 23.222656 13.796875 28.199219 16.316406 33.15625 C 16.496094 32.757812 16.675781 32.359375 16.863281 31.949219 C 18.917969 27.46875 21.070312 23.039062 23.257812 18.621094 C 23.585938 17.964844 23.90625 17.308594 24.230469 16.652344 C 29.808594 5.300781 29.808594 5.300781 35.59375 2.699219 C 40.566406 1.085938 45.429688 1.898438 50 4.210938 Z M 50 4.210938 "/>
<path style=" stroke:none;fill-rule:nonzero;fill:rgb(98.431373%,98.431373%,98.431373%);fill-opacity:1;" d="M 140.527344 11.050781 C 149.558594 11.050781 158.589844 11.050781 167.894531 11.050781 C 167.894531 13.308594 167.894531 15.570312 167.894531 17.894531 C 164.941406 17.894531 161.988281 17.894531 158.949219 17.894531 C 158.949219 26.058594 158.949219 34.222656 158.949219 42.632812 C 155.820312 42.632812 152.695312 42.632812 149.472656 42.632812 C 149.472656 34.46875 149.472656 26.304688 149.472656 17.894531 C 146.519531 17.894531 143.570312 17.894531 140.527344 17.894531 C 140.527344 15.636719 140.527344 13.378906 140.527344 11.050781 Z M 140.527344 11.050781 "/>
<path style=" stroke:none;fill-rule:nonzero;fill:rgb(3.921569%,3.921569%,3.921569%);fill-opacity:1;" d="M 85.261719 29.472656 C 91.957031 29.253906 91.957031 29.253906 94.210938 31.050781 C 94.464844 32.828125 94.628906 34.078125 93.640625 35.636719 C 92.082031 36.6875 90.699219 36.464844 88.847656 36.414062 C 88.179688 36.398438 87.507812 36.386719 86.820312 36.371094 C 86.304688 36.351562 85.792969 36.335938 85.261719 36.316406 C 85.261719 34.058594 85.261719 31.800781 85.261719 29.472656 Z M 85.261719 29.472656 "/>
<path style=" stroke:none;fill-rule:nonzero;fill:rgb(5.098039%,5.098039%,5.098039%);fill-opacity:1;" d="M 85.261719 17.367188 C 86.261719 17.324219 87.257812 17.296875 88.257812 17.269531 C 88.8125 17.25 89.367188 17.234375 89.941406 17.214844 C 91.765625 17.386719 92.730469 17.898438 94.210938 18.949219 C 93.816406 21.972656 93.816406 21.972656 92.632812 23.15625 C 90.917969 23.261719 90.917969 23.261719 88.882812 23.222656 C 87.871094 23.210938 87.871094 23.210938 86.839844 23.195312 C 86.058594 23.175781 86.058594 23.175781 85.261719 23.15625 C 85.261719 21.246094 85.261719 19.335938 85.261719 17.367188 Z M 85.261719 17.367188 "/>
<path style=" stroke:none;fill-rule:nonzero;fill:rgb(20.784314%,54.509807%,87.843138%);fill-opacity:1;" d="M 26.316406 12.632812 C 26.664062 13.152344 27.011719 13.671875 27.367188 14.210938 C 27.019531 14.210938 26.671875 14.210938 26.316406 14.210938 C 26.246094 14.640625 26.175781 15.074219 26.105469 15.519531 C 26.011719 16.085938 25.917969 16.652344 25.824219 17.238281 C 25.730469 17.796875 25.640625 18.359375 25.542969 18.9375 C 25.011719 21.945312 24.515625 23.195312 22.105469 25.261719 C 21.585938 25.261719 21.0625 25.261719 20.527344 25.261719 C 21.371094 22.390625 22.65625 19.828125 24.011719 17.171875 C 24.234375 16.734375 24.457031 16.296875 24.683594 15.84375 C 25.226562 14.773438 25.769531 13.703125 26.316406 12.632812 Z M 26.316406 12.632812 "/>
<path style=" stroke:none;fill-rule:nonzero;fill:rgb(1.568628%,3.921569%,6.27451%);fill-opacity:1;" d="M 46.316406 0 C 47.707031 0 49.09375 0 50.527344 0 C 50.351562 0.695312 50.179688 1.390625 50 2.105469 C 49.652344 2.105469 49.304688 2.105469 48.949219 2.105469 C 48.949219 2.625 48.949219 3.148438 48.949219 3.683594 C 47.210938 3.164062 45.472656 2.640625 43.683594 2.105469 C 43.683594 1.929688 43.683594 1.757812 43.683594 1.578125 C 44.550781 1.578125 45.421875 1.578125 46.316406 1.578125 C 46.316406 1.058594 46.316406 0.535156 46.316406 0 Z M 46.316406 0 "/>
<path style=" stroke:none;fill-rule:nonzero;fill:rgb(20%,59.607846%,99.215686%);fill-opacity:1;" d="M 20 28.949219 C 20.519531 29.121094 21.042969 29.292969 21.578125 29.472656 C 21.578125 30.863281 21.578125 32.253906 21.578125 33.683594 C 20.703125 33.707031 19.824219 33.707031 18.949219 33.683594 C 18.421875 33.15625 18.421875 33.15625 18.386719 31.28125 C 18.398438 30.6875 18.410156 30.089844 18.421875 29.472656 C 18.941406 29.734375 18.941406 29.734375 19.472656 30 C 19.648438 29.652344 19.820312 29.304688 20 28.949219 Z M 20 28.949219 "/>
<path style=" stroke:none;fill-rule:nonzero;fill:rgb(19.215687%,52.941179%,85.490197%);fill-opacity:1;" d="M 34.738281 3.15625 C 35.085938 3.332031 35.429688 3.503906 35.789062 3.683594 C 35.617188 4.726562 35.441406 5.769531 35.261719 6.84375 C 35.957031 7.191406 36.652344 7.535156 37.367188 7.894531 C 36.847656 8.242188 36.328125 8.589844 35.789062 8.949219 C 35.269531 8.773438 34.746094 8.601562 34.210938 8.421875 C 34.210938 8.074219 34.210938 7.726562 34.210938 7.367188 C 33.863281 7.367188 33.515625 7.367188 33.15625 7.367188 C 33.15625 7.019531 33.15625 6.671875 33.15625 6.316406 C 32.808594 6.140625 32.464844 5.96875 32.105469 5.789062 C 32.105469 5.441406 32.105469 5.09375 32.105469 4.738281 C 33.355469 3.847656 33.355469 3.847656 34.738281 3.15625 Z M 34.738281 3.15625 "/>
<path style=" stroke:none;fill-rule:nonzero;fill:rgb(21.568628%,53.333336%,87.450981%);fill-opacity:1;" d="M 20 36.84375 C 20.347656 36.84375 20.695312 36.84375 21.050781 36.84375 C 20.363281 39.070312 19.503906 41.089844 18.421875 43.15625 C 17.796875 42.300781 17.796875 42.300781 17.367188 41.050781 C 18.09375 39.34375 18.09375 39.34375 18.949219 37.894531 C 19.292969 37.894531 19.640625 37.894531 20 37.894531 C 20 37.546875 20 37.199219 20 36.84375 Z M 20 36.84375 "/>
<path style=" stroke:none;fill-rule:nonzero;fill:rgb(20.784314%,51.764709%,83.137256%);fill-opacity:1;" d="M 6.316406 25.789062 C 6.488281 26.484375 6.664062 27.179688 6.84375 27.894531 C 7.363281 27.894531 7.882812 27.894531 8.421875 27.894531 C 8.75 28.847656 8.75 28.847656 8.949219 30 C 8.425781 30.78125 8.425781 30.78125 7.894531 31.578125 C 7.527344 30.914062 7.167969 30.242188 6.808594 29.574219 C 6.609375 29.199219 6.40625 28.828125 6.199219 28.445312 C 5.789062 27.367188 5.789062 27.367188 6.316406 25.789062 Z M 6.316406 25.789062 "/>
<path style=" stroke:none;fill-rule:nonzero;fill:rgb(21.176471%,53.333336%,85.09804%);fill-opacity:1;" d="M 16.316406 44.210938 C 16.664062 44.210938 17.011719 44.210938 17.367188 44.210938 C 17.019531 45.253906 16.671875 46.292969 16.316406 47.367188 C 15.792969 47.367188 15.273438 47.367188 14.738281 47.367188 C 14.5625 46.5 14.390625 45.632812 14.210938 44.738281 C 14.90625 44.910156 15.601562 45.085938 16.316406 45.261719 C 16.316406 44.914062 16.316406 44.570312 16.316406 44.210938 Z M 16.316406 44.210938 "/>
<path style=" stroke:none;fill-rule:nonzero;fill:rgb(20.784314%,52.941179%,86.274511%);fill-opacity:1;" d="M 21.578125 30.527344 C 22.273438 31.046875 22.96875 31.570312 23.683594 32.105469 C 23.078125 33.402344 22.605469 34.234375 21.578125 35.261719 C 21.578125 33.699219 21.578125 32.136719 21.578125 30.527344 Z M 21.578125 30.527344 "/>
<path style=" stroke:none;fill-rule:nonzero;fill:rgb(20.784314%,47.843137%,74.117649%);fill-opacity:1;" d="M 47.367188 3.15625 C 48.671875 3.679688 48.671875 3.679688 50 4.210938 C 50 4.558594 50 4.90625 50 5.261719 C 48.089844 5.089844 46.179688 4.914062 44.210938 4.738281 C 44.210938 4.5625 44.210938 4.390625 44.210938 4.210938 C 45.253906 4.210938 46.292969 4.210938 47.367188 4.210938 C 47.367188 3.863281 47.367188 3.515625 47.367188 3.15625 Z M 47.367188 3.15625 "/>
<path style=" stroke:none;fill-rule:nonzero;fill:rgb(19.215687%,47.450981%,73.333335%);fill-opacity:1;" d="M 10.527344 23.15625 C 10.875 23.15625 11.222656 23.15625 11.578125 23.15625 C 12.101562 24.722656 12.621094 26.285156 13.15625 27.894531 C 11.957031 26.691406 10.988281 25.574219 10 24.210938 C 10.171875 23.863281 10.347656 23.515625 10.527344 23.15625 Z M 10.527344 23.15625 "/>
<path style=" stroke:none;fill-rule:nonzero;fill:rgb(20%,53.725493%,87.843138%);fill-opacity:1;" d="M 42.105469 2.105469 C 40.722656 2.847656 39.460938 3.488281 37.894531 3.683594 C 36.710938 3.191406 36.710938 3.191406 35.789062 2.632812 C 37.886719 1.933594 39.921875 2.070312 42.105469 2.105469 Z M 42.105469 2.105469 "/>
</g>
</svg>
